<svg xmlns="http://www.w3.org/2000/svg" width="192" height="192" viewBox="0 0 192 192"><rect width="100%" height="100%" fill="#ffcc00"/><path fill="#000000" d="M52.095 90.725q0 4.7 1.26 8.43 1.27 3.74 3.62 6.32 2.35 2.59 5.68 3.97 3.34 1.39 7.53 1.39t7.52-1.39q3.34-1.38 5.67-3.97 2.33-2.58 3.6-6.32 1.26-3.73 1.26-8.43t-1.26-8.43q-1.27-3.73-3.6-6.34t-5.67-3.99q-3.33-1.38-7.52-1.38t-7.53 1.38q-3.33 1.38-5.68 3.99t-3.62 6.34q-1.26 3.73-1.26 8.43m35.47 23.94 14.5 15.8h-8.77q-1.9 0-3.42-.51-1.52-.52-2.79-1.9l-8.37-9.24q-2.01.55-4.13.83-2.11.27-4.4.27-6.48 0-11.81-2.19t-9.15-6.1q-3.81-3.91-5.9-9.27-2.09-5.35-2.09-11.63t2.09-11.63 5.9-9.26q3.82-3.91 9.15-6.11 5.33-2.19 11.81-2.19 4.34 0 8.18 1.01 3.83 1.01 7.03 2.84 3.2 1.84 5.74 4.47 2.55 2.62 4.33 5.86t2.7 7.03q.93 3.79.93 7.98 0 3.83-.79 7.33-.79 3.49-2.27 6.54-1.48 3.04-3.61 5.59-2.14 2.54-4.86 4.48m31.48-3.67h10.74q2.97 0 4.98-.72 2.02-.71 3.22-1.89 1.21-1.19 1.74-2.77t.53-3.35q0-1.86-.59-3.34t-1.86-2.53q-1.26-1.05-3.26-1.6-1.99-.55-4.8-.55h-10.7zm9.05-40.61h-9.05v16.51h8.45q5.45 0 8.24-1.98 2.78-1.97 2.78-6.28 0-4.46-2.52-6.36-2.53-1.89-7.9-1.89m-19.68-8.22h19.68q5.6 0 9.59 1.07t6.54 3.04q2.55 1.98 3.73 4.78 1.19 2.81 1.19 6.32 0 2.01-.59 3.85-.6 1.84-1.84 3.44t-3.16 2.9q-1.92 1.31-4.56 2.21 11.77 2.65 11.77 12.72 0 3.64-1.38 6.72-1.39 3.08-4.03 5.31-2.65 2.23-6.52 3.5-3.87 1.26-8.85 1.26h-21.57z"/></svg>